<svg xmlns="http://www.w3.org/2000/svg" width="1200" height="220" viewBox="0 0 1200 220">
<defs><marker id="arr" markerWidth="8" markerHeight="8" refX="7" refY="4" orient="auto"><path d="M0,0 L8,4 L0,8 Z" fill="rgb(60,60,60)"/></marker></defs>
<rect width="100%" height="100%" fill="rgb(252,252,252)"/>
<g>
<title>determinism — model=demo; time_frozen=true; epoch=1776819690; random_seed=0x2; syscall_intercept=false</title>
<rect x="40" y="120" width="88" height="22" rx="3" fill="rgb(245,245,245)" stroke="rgb(80,80,80)"/>
<text x="44" y="135" font-size="9" font-family="sans-serif">determinism</text>
</g>
<g>
<title>prompt_0 — cli_flow_human</title>
<rect x="200" y="40" width="88" height="22" rx="3" fill="rgb(230,240,255)" stroke="rgb(80,80,80)"/>
<text x="204" y="55" font-size="9" font-family="sans-serif">prompt_0</text>
</g>
<g>
<title>seed — 0x2</title>
<rect x="40" y="40" width="88" height="22" rx="3" fill="rgb(255,245,230)" stroke="rgb(80,80,80)"/>
<text x="44" y="55" font-size="9" font-family="sans-serif">seed</text>
</g>
<g>
<title>token_0 — drift</title>
<rect x="360" y="100" width="88" height="22" rx="3" fill="rgb(240,255,240)" stroke="rgb(80,80,80)"/>
<text x="364" y="115" font-size="9" font-family="sans-serif">token_0</text>
</g>
<g>
<title>token_1 — policy</title>
<rect x="460" y="100" width="88" height="22" rx="3" fill="rgb(240,255,240)" stroke="rgb(80,80,80)"/>
<text x="464" y="115" font-size="9" font-family="sans-serif">token_1</text>
</g>
<g>
<title>token_2 — bind</title>
<rect x="560" y="100" width="88" height="22" rx="3" fill="rgb(240,255,240)" stroke="rgb(80,80,80)"/>
<text x="564" y="115" font-size="9" font-family="sans-serif">token_2</text>
</g>
<g>
<title>token_3 — stable</title>
<rect x="660" y="100" width="88" height="22" rx="3" fill="rgb(240,255,240)" stroke="rgb(80,80,80)"/>
<text x="664" y="115" font-size="9" font-family="sans-serif">token_3</text>
</g>
<g>
<title>token_4 — stable</title>
<rect x="760" y="100" width="88" height="22" rx="3" fill="rgb(240,255,240)" stroke="rgb(80,80,80)"/>
<text x="764" y="115" font-size="9" font-family="sans-serif">token_4</text>
</g>
<g>
<title>token_5 — causal</title>
<rect x="860" y="100" width="88" height="22" rx="3" fill="rgb(240,255,240)" stroke="rgb(80,80,80)"/>
<text x="864" y="115" font-size="9" font-family="sans-serif">token_5</text>
</g>
<g>
<title>token_6 — token</title>
<rect x="960" y="100" width="88" height="22" rx="3" fill="rgb(240,255,240)" stroke="rgb(80,80,80)"/>
<text x="964" y="115" font-size="9" font-family="sans-serif">token_6</text>
</g>
<g>
<title>determinism → token_0</title>
<path d="M 128 131 L 360 111" stroke="rgb(70,70,70)" fill="none" marker-end="url(#arr)"/>
</g>
<g>
<title>prompt_0 → token_0</title>
<path d="M 288 51 L 360 111" stroke="rgb(70,70,70)" fill="none" marker-end="url(#arr)"/>
</g>
<g>
<title>seed → token_0</title>
<path d="M 128 51 L 360 111" stroke="rgb(70,70,70)" fill="none" marker-end="url(#arr)"/>
</g>
<g>
<title>token_0 → token_1</title>
<path d="M 448 111 L 460 111" stroke="rgb(70,70,70)" fill="none" marker-end="url(#arr)"/>
</g>
<g>
<title>token_1 → token_2</title>
<path d="M 548 111 L 560 111" stroke="rgb(70,70,70)" fill="none" marker-end="url(#arr)"/>
</g>
<g>
<title>token_2 → token_3</title>
<path d="M 648 111 L 660 111" stroke="rgb(70,70,70)" fill="none" marker-end="url(#arr)"/>
</g>
<g>
<title>token_3 → token_4</title>
<path d="M 748 111 L 760 111" stroke="rgb(70,70,70)" fill="none" marker-end="url(#arr)"/>
</g>
<g>
<title>token_4 → token_5</title>
<path d="M 848 111 L 860 111" stroke="rgb(70,70,70)" fill="none" marker-end="url(#arr)"/>
</g>
<g>
<title>token_5 → token_6</title>
<path d="M 948 111 L 960 111" stroke="rgb(70,70,70)" fill="none" marker-end="url(#arr)"/>
</g>
</svg>